<?xml version="1.0" encoding="utf-8"?>
<!-- Generator: Adobe Illustrator 26.3.1, SVG Export Plug-In . SVG Version: 6.00 Build 0)  -->
<svg version="1.1" id="Layer_1" xmlns="http://www.w3.org/2000/svg" xmlns:xlink="http://www.w3.org/1999/xlink" x="0px" y="0px"
	 viewBox="0 0 150 125" style="enable-background:new 0 0 150 125;" xml:space="preserve">
<style type="text/css">
	.st0{fill:#192F5D;stroke:#231F20;stroke-miterlimit:10;}
	.st1{fill:#BE3D45;stroke:#231F20;stroke-miterlimit:10;}
	.st2{fill:#FFFFFF;stroke:#231F20;stroke-miterlimit:10;}
	.st3{fill:#FFFFFF;stroke:#000000;stroke-miterlimit:10;}
	.st4{clip-path:url(#SVGID_00000047026253563991015100000017250957282963752587_);}
	.st5{fill-rule:evenodd;clip-rule:evenodd;fill:#BE3D45;}
	.st6{fill-rule:evenodd;clip-rule:evenodd;fill:#FFFFFF;}
	.st7{fill-rule:evenodd;clip-rule:evenodd;fill:#1C305D;}
	.st8{fill:#FFFFFF;}
</style>
<g>
	<path class="st0" d="M11,1h78c5.5,0,10,4.5,10,10v103c0,5.5-4.5,10-10,10H11c-5.5,0-10-4.5-10-10V11C1,5.5,5.5,1,11,1z"/>
	<path class="st1" d="M36,1h78c5.5,0,10,4.5,10,10v103c0,5.5-4.5,10-10,10H36c-5.5,0-10-4.5-10-10V11C26,5.5,30.5,1,36,1z"/>
	<path class="st2" d="M61,1h78c5.5,0,10,4.5,10,10v103c0,5.5-4.5,10-10,10H61c-5.5,0-10-4.5-10-10V11C51,5.5,55.5,1,61,1z"/>
	<path class="st3" d="M0,0"/>
</g>
<g>
	<defs>
		<rect id="SVGID_1_" x="66.2" y="13" width="69.6" height="92.8"/>
	</defs>
	<clipPath id="SVGID_00000150782496215438186810000008871107265605693588_">
		<use xlink:href="#SVGID_1_"  style="overflow:visible;"/>
	</clipPath>
	
		<g id="flag" transform="matrix(.93750 0 0 .93750 0 -.0000049038)" style="clip-path:url(#SVGID_00000150782496215438186810000008871107265605693588_);">
		<g id="g390" transform="matrix(3.9385 0 0 3.9385 0 .000005)">
			<g id="g169">
				<rect id="rect156" x="17.9" y="0.8" class="st5" width="1.4" height="35.8"/>
				<rect id="rect158" x="20.8" y="5.1" class="st5" width="1.4" height="35.8"/>
				<rect id="rect160" x="23.7" y="6.7" class="st5" width="1.4" height="35.8"/>
				<rect id="rect162" x="26.6" y="9.6" class="st5" width="1.4" height="35.8"/>
				<rect id="rect164" x="29.5" y="12.2" class="st5" width="1.4" height="35.8"/>
				<rect id="rect166" x="32.5" y="14.2" class="st5" width="1.4" height="35.8"/>
				<rect id="rect168" x="35.3" y="17" class="st5" width="1.4" height="35.8"/>
			</g>
			<g id="g177">
				<rect id="rect157" x="19.4" y="-7.2" class="st6" width="1.4" height="35.8"/>
				<rect id="rect159" x="22.3" y="-7.2" class="st6" width="1.4" height="35.8"/>
				<rect id="rect161" x="25.2" y="-7.2" class="st6" width="1.4" height="35.8"/>
				<rect id="rect163" x="28.1" y="-7.2" class="st6" width="1.4" height="35.8"/>
				<rect id="rect165" x="31" y="-7.2" class="st6" width="1.4" height="35.8"/>
				<rect id="rect167" x="33.9" y="-7.2" class="st6" width="1.4" height="35.8"/>
			</g>
		</g>
		<rect id="rect200" x="70.6" y="56.4" class="st7" width="40" height="56.4"/>
		<g id="g274" transform="matrix(3.9385 0 0 3.9385 0 .000005)">
			<g id="g218">
				<g id="g194">
					<polygon id="polygon207" class="st6" points="18.4,27.5 18.8,27.3 18.8,26.9 19,27.2 19.4,27.1 19.2,27.5 19.4,27.8 19,27.7 
						18.8,28 18.8,27.6 					"/>
					<polygon id="polygon188" class="st6" points="18.4,25.1 18.8,24.9 18.8,24.5 19,24.9 19.4,24.7 19.2,25.1 19.4,25.4 19,25.3 
						18.8,25.6 18.8,25.2 					"/>
					<polygon id="polygon189" class="st6" points="18.4,22.7 18.8,22.5 18.8,22.1 19,22.5 19.4,22.3 19.2,22.7 19.4,23 19,22.9 
						18.8,23.2 18.8,22.8 					"/>
					<polygon id="polygon190" class="st6" points="18.4,20.3 18.8,20.2 18.8,19.7 19,20.1 19.4,20 19.2,20.3 19.4,20.6 19,20.5 
						18.8,20.8 18.8,20.4 					"/>
					<polygon id="polygon191" class="st6" points="18.4,17.9 18.8,17.8 18.8,17.4 19,17.7 19.4,17.6 19.2,17.9 19.4,18.2 19,18.1 
						18.8,18.5 18.8,18 					"/>
					<polygon id="polygon192" class="st6" points="18.4,15.5 18.8,15.4 18.8,15 19,15.3 19.4,15.2 19.2,15.5 19.4,15.9 19,15.7 
						18.8,16.1 18.8,15.6 					"/>
				</g>
				<g id="g205">
					<polygon id="polygon193" class="st6" points="19.4,26.3 19.8,26.1 19.8,25.7 20,26 20.4,25.9 20.2,26.3 20.4,26.6 20,26.5 
						19.8,26.8 19.8,26.4 					"/>
					<polygon id="polygon201" class="st6" points="19.4,23.9 19.8,23.7 19.8,23.3 20,23.7 20.4,23.5 20.2,23.9 20.4,24.2 20,24.1 
						19.8,24.4 19.8,24 					"/>
					<polygon id="polygon202" class="st6" points="19.4,21.5 19.8,21.4 19.8,20.9 20,21.3 20.4,21.1 20.2,21.5 20.4,21.8 20,21.7 
						19.8,22 19.8,21.6 					"/>
					<polygon id="polygon203" class="st6" points="19.4,19.1 19.8,19 19.8,18.5 20,18.9 20.4,18.8 20.2,19.1 20.4,19.4 20,19.3 
						19.8,19.7 19.8,19.2 					"/>
					<polygon id="polygon204" class="st6" points="19.4,16.7 19.8,16.6 19.8,16.2 20,16.5 20.4,16.4 20.2,16.7 20.4,17.1 20,16.9 
						19.8,17.3 19.8,16.8 					"/>
				</g>
			</g>
			<g id="g232" transform="translate(0,14)">
				<g id="g233">
					<polygon id="polygon234" class="st6" points="20.4,13.5 20.8,13.3 20.8,12.9 21,13.2 21.4,13.1 21.2,13.5 21.4,13.8 21,13.7 
						20.8,14 20.8,13.6 					"/>
					<polygon id="polygon235" class="st6" points="20.4,11.1 20.8,10.9 20.8,10.5 21,10.9 21.4,10.7 21.2,11.1 21.4,11.4 21,11.3 
						20.8,11.6 20.8,11.2 					"/>
					<polygon id="polygon236" class="st6" points="20.4,8.7 20.8,8.5 20.8,8.1 21,8.5 21.4,8.3 21.2,8.7 21.4,9 21,8.9 20.8,9.2 
						20.8,8.8 					"/>
					<polygon id="polygon237" class="st6" points="20.4,6.3 20.8,6.2 20.8,5.7 21,6.1 21.4,6 21.2,6.3 21.4,6.6 21,6.5 20.8,6.8 
						20.8,6.4 					"/>
					<polygon id="polygon238" class="st6" points="20.4,3.9 20.8,3.8 20.8,3.4 21,3.7 21.4,3.6 21.2,3.9 21.4,4.2 21,4.1 20.8,4.5 
						20.8,4 					"/>
					<polygon id="polygon239" class="st6" points="20.4,1.5 20.8,1.4 20.8,1 21,1.3 21.4,1.2 21.2,1.5 21.4,1.9 21,1.7 20.8,2.1 
						20.8,1.6 					"/>
				</g>
				<g id="g240">
					<polygon id="polygon241" class="st6" points="21.4,12.3 21.8,12.1 21.8,11.7 22.1,12 22.5,11.9 22.2,12.3 22.5,12.6 22.1,12.5 
						21.8,12.8 21.8,12.4 					"/>
					<polygon id="polygon242" class="st6" points="21.4,9.9 21.8,9.7 21.8,9.3 22.1,9.7 22.5,9.5 22.2,9.9 22.5,10.2 22.1,10.1 
						21.8,10.4 21.8,10 					"/>
					<polygon id="polygon243" class="st6" points="21.4,7.5 21.8,7.4 21.8,6.9 22.1,7.3 22.5,7.1 22.2,7.5 22.5,7.8 22.1,7.7 
						21.8,8 21.8,7.6 					"/>
					<polygon id="polygon244" class="st6" points="21.4,5.1 21.8,5 21.8,4.5 22.1,4.9 22.5,4.8 22.2,5.1 22.5,5.4 22.1,5.3 
						21.8,5.7 21.8,5.2 					"/>
					<polygon id="polygon245" class="st6" points="21.4,2.7 21.8,2.6 21.8,2.2 22.1,2.5 22.5,2.4 22.2,2.7 22.5,3.1 22.1,2.9 
						21.8,3.3 21.8,2.8 					"/>
				</g>
			</g>
			<g id="g246" transform="translate(0,28)">
				<g id="g247">
					<polygon id="polygon248" class="st6" points="22.4,-0.5 22.8,-0.7 22.8,-1.1 23.1,-0.8 23.5,-0.9 23.2,-0.5 23.5,-0.2 
						23.1,-0.3 22.8,0 22.8,-0.4 					"/>
					<polygon id="polygon249" class="st6" points="22.4,-2.9 22.8,-3.1 22.8,-3.5 23.1,-3.1 23.5,-3.3 23.2,-2.9 23.5,-2.6 
						23.1,-2.7 22.8,-2.4 22.8,-2.8 					"/>
					<polygon id="polygon250" class="st6" points="22.4,-5.3 22.8,-5.5 22.8,-5.9 23.1,-5.5 23.5,-5.7 23.2,-5.3 23.5,-5 23.1,-5.1 
						22.8,-4.8 22.8,-5.2 					"/>
					<polygon id="polygon251" class="st6" points="22.4,-7.7 22.8,-7.8 22.8,-8.3 23.1,-7.9 23.5,-8 23.2,-7.7 23.5,-7.4 23.1,-7.5 
						22.8,-7.2 22.8,-7.6 					"/>
					<polygon id="polygon252" class="st6" points="22.4,-10.1 22.8,-10.2 22.8,-10.6 23.1,-10.3 23.5,-10.4 23.2,-10.1 23.5,-9.8 
						23.1,-9.9 22.8,-9.5 22.8,-10 					"/>
					<polygon id="polygon253" class="st6" points="22.4,-12.5 22.8,-12.6 22.8,-13 23.1,-12.7 23.5,-12.8 23.2,-12.5 23.5,-12.1 
						23.1,-12.3 22.8,-11.9 22.8,-12.4 					"/>
				</g>
				<g id="g254">
					<polygon id="polygon255" class="st6" points="23.4,-1.7 23.8,-1.9 23.8,-2.3 24.1,-2 24.5,-2.1 24.2,-1.7 24.5,-1.4 24.1,-1.5 
						23.8,-1.2 23.8,-1.6 					"/>
					<polygon id="polygon256" class="st6" points="23.4,-4.1 23.8,-4.3 23.8,-4.7 24.1,-4.3 24.5,-4.5 24.2,-4.1 24.5,-3.8 
						24.1,-3.9 23.8,-3.6 23.8,-4 					"/>
					<polygon id="polygon257" class="st6" points="23.4,-6.5 23.8,-6.6 23.8,-7.1 24.1,-6.7 24.5,-6.9 24.2,-6.5 24.5,-6.2 
						24.1,-6.3 23.8,-6 23.8,-6.4 					"/>
					<polygon id="polygon258" class="st6" points="23.4,-8.9 23.8,-9 23.8,-9.5 24.1,-9.1 24.5,-9.2 24.2,-8.9 24.5,-8.6 24.1,-8.7 
						23.8,-8.3 23.8,-8.8 					"/>
					<polygon id="polygon259" class="st6" points="23.4,-11.3 23.8,-11.4 23.8,-11.8 24.1,-11.5 24.5,-11.6 24.2,-11.3 24.5,-10.9 
						24.1,-11.1 23.8,-10.7 23.8,-11.2 					"/>
				</g>
			</g>
			<g id="g260" transform="translate(0,42)">
				<g id="g261">
					<polygon id="polygon262" class="st6" points="24.5,-14.5 24.9,-14.7 24.9,-15.1 25.1,-14.8 25.5,-14.9 25.3,-14.5 25.5,-14.2 
						25.1,-14.3 24.9,-14 24.9,-14.4 					"/>
					<polygon id="polygon263" class="st6" points="24.5,-16.9 24.9,-17.1 24.9,-17.5 25.1,-17.1 25.5,-17.3 25.3,-16.9 25.5,-16.6 
						25.1,-16.7 24.9,-16.4 24.9,-16.8 					"/>
					<polygon id="polygon264" class="st6" points="24.5,-19.3 24.9,-19.5 24.9,-19.9 25.1,-19.5 25.5,-19.7 25.3,-19.3 25.5,-19 
						25.1,-19.1 24.9,-18.8 24.9,-19.2 					"/>
					<polygon id="polygon265" class="st6" points="24.5,-21.7 24.9,-21.8 24.9,-22.3 25.1,-21.9 25.5,-22 25.3,-21.7 25.5,-21.4 
						25.1,-21.5 24.9,-21.2 24.9,-21.6 					"/>
					<polygon id="polygon266" class="st6" points="24.5,-24.1 24.9,-24.2 24.9,-24.6 25.1,-24.3 25.5,-24.4 25.3,-24.1 25.5,-23.8 
						25.1,-23.9 24.9,-23.5 24.9,-24 					"/>
					<polygon id="polygon267" class="st6" points="24.5,-26.5 24.9,-26.6 24.9,-27 25.1,-26.7 25.5,-26.8 25.3,-26.5 25.5,-26.1 
						25.1,-26.3 24.9,-25.9 24.9,-26.4 					"/>
				</g>
				<g id="g268">
					<polygon id="polygon269" class="st6" points="25.5,-15.7 25.9,-15.9 25.9,-16.3 26.1,-16 26.5,-16.1 26.3,-15.7 26.5,-15.4 
						26.1,-15.5 25.9,-15.2 25.9,-15.6 					"/>
					<polygon id="polygon270" class="st6" points="25.5,-18.1 25.9,-18.3 25.9,-18.7 26.1,-18.3 26.5,-18.5 26.3,-18.1 26.5,-17.8 
						26.1,-17.9 25.9,-17.6 25.9,-18 					"/>
					<polygon id="polygon271" class="st6" points="25.5,-20.5 25.9,-20.6 25.9,-21.1 26.1,-20.7 26.5,-20.9 26.3,-20.5 26.5,-20.2 
						26.1,-20.3 25.9,-20 25.9,-20.4 					"/>
					<polygon id="polygon272" class="st6" points="25.5,-22.9 25.9,-23 25.9,-23.5 26.1,-23.1 26.5,-23.2 26.3,-22.9 26.5,-22.6 
						26.1,-22.7 25.9,-22.3 25.9,-22.8 					"/>
					<polygon id="polygon273" class="st6" points="25.5,-25.3 25.9,-25.4 25.9,-25.8 26.1,-25.5 26.5,-25.6 26.3,-25.3 26.5,-24.9 
						26.1,-25.1 25.9,-24.7 25.9,-25.2 					"/>
				</g>
			</g>
			<g id="g211" transform="translate(0,56)">
				<polygon id="polygon212" class="st6" points="26.5,-28.5 26.9,-28.7 26.9,-29.1 27.1,-28.8 27.5,-28.9 27.3,-28.5 27.5,-28.2 
					27.1,-28.3 26.9,-28 26.9,-28.4 				"/>
				<polygon id="polygon213" class="st6" points="26.5,-30.9 26.9,-31.1 26.9,-31.5 27.1,-31.1 27.5,-31.3 27.3,-30.9 27.5,-30.6 
					27.1,-30.7 26.9,-30.4 26.9,-30.8 				"/>
				<polygon id="polygon214" class="st6" points="26.5,-33.3 26.9,-33.5 26.9,-33.9 27.1,-33.5 27.5,-33.7 27.3,-33.3 27.5,-33 
					27.1,-33.1 26.9,-32.8 26.9,-33.2 				"/>
				<polygon id="polygon215" class="st6" points="26.5,-35.7 26.9,-35.8 26.9,-36.3 27.1,-35.9 27.5,-36 27.3,-35.7 27.5,-35.4 
					27.1,-35.5 26.9,-35.2 26.9,-35.6 				"/>
				<polygon id="polygon216" class="st6" points="26.5,-38.1 26.9,-38.2 26.9,-38.6 27.1,-38.3 27.5,-38.4 27.3,-38.1 27.5,-37.8 
					27.1,-37.9 26.9,-37.5 26.9,-38 				"/>
				<polygon id="polygon217" class="st6" points="26.5,-40.5 26.9,-40.6 26.9,-41 27.1,-40.7 27.5,-40.8 27.3,-40.5 27.5,-40.1 
					27.1,-40.3 26.9,-39.9 26.9,-40.4 				"/>
			</g>
		</g>
	</g>
</g>
<path class="st8" d="M180.6,90.3"/>
</svg>
