<?xml version="1.0" encoding="utf-8"?>
<!-- Generator: Adobe Illustrator 26.3.1, SVG Export Plug-In . SVG Version: 6.00 Build 0)  -->
<svg version="1.1" id="Layer_1" xmlns="http://www.w3.org/2000/svg" xmlns:xlink="http://www.w3.org/1999/xlink" x="0px" y="0px"
	 viewBox="0 0 150 125" style="enable-background:new 0 0 150 125;" xml:space="preserve">
<style type="text/css">
	.st0{fill:#192F5D;stroke:#231F20;stroke-miterlimit:10;}
	.st1{fill:#FFFFFF;stroke:#231F20;stroke-miterlimit:10;}
	.st2{fill:#FFFFFF;stroke:#000000;stroke-miterlimit:10;}
	.st3{clip-path:url(#SVGID_00000090261540725733727410000017750215067384796584_);}
	.st4{fill-rule:evenodd;clip-rule:evenodd;fill:#BD3D44;}
	.st5{fill-rule:evenodd;clip-rule:evenodd;fill:#FFFFFF;}
	.st6{fill-rule:evenodd;clip-rule:evenodd;fill:#192F5D;}
</style>
<g>
	<path class="st0" d="M11,1h78c5.5,0,10,4.5,10,10v103c0,5.5-4.5,10-10,10H11c-5.5,0-10-4.5-10-10V11C1,5.5,5.5,1,11,1z"/>
	<path class="st1" d="M36,1h78c5.5,0,10,4.5,10,10v103c0,5.5-4.5,10-10,10H36c-5.5,0-10-4.5-10-10V11C26,5.5,30.5,1,36,1z"/>
	<path class="st0" d="M61,1h78c5.5,0,10,4.5,10,10v103c0,5.5-4.5,10-10,10H61c-5.5,0-10-4.5-10-10V11C51,5.5,55.5,1,61,1z"/>
	<path class="st2" d="M0,0"/>
</g>
<g>
	<defs>
		<path id="SVGID_1_" d="M60.9,1h78.3c5.4,0,9.9,4.4,9.9,9.9v103.3c0,5.4-4.4,9.9-9.9,9.9H60.9c-5.4,0-9.9-4.4-9.9-9.9V10.9
			C51,5.4,55.4,1,60.9,1z"/>
	</defs>
	<clipPath id="SVGID_00000128445408145057134150000008395165974090388353_">
		<use xlink:href="#SVGID_1_"  style="overflow:visible;"/>
	</clipPath>
	
		<g id="flag" transform="matrix(.93750 0 0 .93750 0 -.0000049038)" style="clip-path:url(#SVGID_00000128445408145057134150000008395165974090388353_);">
		<g id="g390" transform="matrix(3.9385 0 0 3.9385 0 .000005)">
			<g id="g169">
				<rect id="rect156" x="13.8" y="0.3" class="st4" width="37.8" height="2.6"/>
				<rect id="rect158" x="13.8" y="5.4" class="st4" width="37.8" height="2.6"/>
				<rect id="rect160" x="13.8" y="10.5" class="st4" width="37.8" height="2.6"/>
				<rect id="rect162" x="13.8" y="15.6" class="st4" width="37.8" height="2.6"/>
				<rect id="rect164" x="13.8" y="20.8" class="st4" width="37.8" height="2.6"/>
				<rect id="rect166" x="13.8" y="25.9" class="st4" width="37.8" height="2.6"/>
				<rect id="rect168" x="13.8" y="31" class="st4" width="37.8" height="2.6"/>
			</g>
			<g id="g177">
				<rect id="rect157" x="13.8" y="2.8" class="st5" width="37.8" height="2.6"/>
				<rect id="rect159" x="13.8" y="8" class="st5" width="37.8" height="2.6"/>
				<rect id="rect161" x="13.8" y="13.1" class="st5" width="37.8" height="2.6"/>
				<rect id="rect163" x="13.8" y="18.2" class="st5" width="37.8" height="2.6"/>
				<rect id="rect165" x="13.8" y="23.3" class="st5" width="37.8" height="2.6"/>
				<rect id="rect167" x="13.8" y="28.5" class="st5" width="37.8" height="2.6"/>
			</g>
		</g>
		<rect id="rect200" x="54.4" y="1.1" class="st6" width="59.6" height="70.6"/>
		<g id="g274" transform="matrix(3.9385 0 0 3.9385 0 .000005)">
			<g id="g218">
				<g id="g194">
					<polygon id="polygon207" class="st5" points="15.1,1 15.2,1.7 15.7,1.7 15.3,2.2 15.4,2.9 15.1,2.5 14.7,2.9 14.9,2.2 
						14.5,1.7 14.9,1.7 					"/>
					<polygon id="polygon188" class="st5" points="17.6,1 17.7,1.7 18.2,1.7 17.8,2.2 18,2.9 17.6,2.5 17.2,2.9 17.4,2.2 17,1.7 
						17.5,1.7 					"/>
					<polygon id="polygon189" class="st5" points="20.1,1 20.3,1.7 20.7,1.7 20.3,2.2 20.5,2.9 20.1,2.5 19.8,2.9 19.9,2.2 
						19.5,1.7 20,1.7 					"/>
					<polygon id="polygon190" class="st5" points="22.6,1 22.8,1.7 23.2,1.7 22.9,2.2 23,2.9 22.6,2.5 22.3,2.9 22.4,2.2 22.1,1.7 
						22.5,1.7 					"/>
					<polygon id="polygon191" class="st5" points="25.2,1 25.3,1.7 25.7,1.7 25.4,2.2 25.5,2.9 25.2,2.5 24.8,2.9 24.9,2.2 
						24.6,1.7 25,1.7 					"/>
					<polygon id="polygon192" class="st5" points="27.7,1 27.8,1.7 28.3,1.7 27.9,2.2 28,2.9 27.7,2.5 27.3,2.9 27.5,2.2 27.1,1.7 
						27.5,1.7 					"/>
				</g>
				<g id="g205">
					<polygon id="polygon193" class="st5" points="16.3,2.8 16.5,3.5 16.9,3.5 16.6,4 16.7,4.7 16.3,4.3 16,4.7 16.1,4 15.8,3.5 
						16.2,3.5 					"/>
					<polygon id="polygon201" class="st5" points="18.9,2.8 19,3.5 19.4,3.5 19.1,4 19.2,4.7 18.9,4.3 18.5,4.7 18.6,4 18.3,3.5 
						18.7,3.5 					"/>
					<polygon id="polygon202" class="st5" points="21.4,2.8 21.5,3.5 22,3.5 21.6,4 21.7,4.7 21.4,4.3 21,4.7 21.2,4 20.8,3.5 
						21.2,3.5 					"/>
					<polygon id="polygon203" class="st5" points="23.9,2.8 24,3.5 24.5,3.5 24.1,4 24.3,4.7 23.9,4.3 23.5,4.7 23.7,4 23.3,3.5 
						23.8,3.5 					"/>
					<polygon id="polygon204" class="st5" points="26.4,2.8 26.6,3.5 27,3.5 26.6,4 26.8,4.7 26.4,4.3 26.1,4.7 26.2,4 25.8,3.5 
						26.3,3.5 					"/>
				</g>
			</g>
			<g id="g232" transform="translate(0,14)">
				<g id="g233">
					<polygon id="polygon234" class="st5" points="15.1,-9.4 15.2,-8.7 15.7,-8.7 15.3,-8.2 15.4,-7.5 15.1,-8 14.7,-7.5 14.9,-8.2 
						14.5,-8.7 14.9,-8.7 					"/>
					<polygon id="polygon235" class="st5" points="17.6,-9.4 17.7,-8.7 18.2,-8.7 17.8,-8.2 18,-7.5 17.6,-8 17.2,-7.5 17.4,-8.2 
						17,-8.7 17.5,-8.7 					"/>
					<polygon id="polygon236" class="st5" points="20.1,-9.4 20.3,-8.7 20.7,-8.7 20.3,-8.2 20.5,-7.5 20.1,-8 19.8,-7.5 19.9,-8.2 
						19.5,-8.7 20,-8.7 					"/>
					<polygon id="polygon237" class="st5" points="22.6,-9.4 22.8,-8.7 23.2,-8.7 22.9,-8.2 23,-7.5 22.6,-8 22.3,-7.5 22.4,-8.2 
						22.1,-8.7 22.5,-8.7 					"/>
					<polygon id="polygon238" class="st5" points="25.2,-9.4 25.3,-8.7 25.7,-8.7 25.4,-8.2 25.5,-7.5 25.2,-8 24.8,-7.5 24.9,-8.2 
						24.6,-8.7 25,-8.7 					"/>
					<polygon id="polygon239" class="st5" points="27.7,-9.4 27.8,-8.7 28.3,-8.7 27.9,-8.2 28,-7.5 27.7,-8 27.3,-7.5 27.5,-8.2 
						27.1,-8.7 27.5,-8.7 					"/>
				</g>
				<g id="g240">
					<polygon id="polygon241" class="st5" points="16.3,-7.6 16.5,-6.9 16.9,-6.9 16.6,-6.4 16.7,-5.7 16.3,-6.2 16,-5.7 16.1,-6.4 
						15.8,-6.9 16.2,-6.9 					"/>
					<polygon id="polygon242" class="st5" points="18.9,-7.6 19,-6.9 19.4,-6.9 19.1,-6.4 19.2,-5.7 18.9,-6.2 18.5,-5.7 18.6,-6.4 
						18.3,-6.9 18.7,-6.9 					"/>
					<polygon id="polygon243" class="st5" points="21.4,-7.6 21.5,-6.9 22,-6.9 21.6,-6.4 21.7,-5.7 21.4,-6.2 21,-5.7 21.2,-6.4 
						20.8,-6.9 21.2,-6.9 					"/>
					<polygon id="polygon244" class="st5" points="23.9,-7.6 24,-6.9 24.5,-6.9 24.1,-6.4 24.3,-5.7 23.9,-6.2 23.5,-5.7 23.7,-6.4 
						23.3,-6.9 23.8,-6.9 					"/>
					<polygon id="polygon245" class="st5" points="26.4,-7.6 26.6,-6.9 27,-6.9 26.6,-6.4 26.8,-5.7 26.4,-6.2 26.1,-5.7 26.2,-6.4 
						25.8,-6.9 26.3,-6.9 					"/>
				</g>
			</g>
			<g id="g246" transform="translate(0,28)">
				<g id="g247">
					<polygon id="polygon248" class="st5" points="15.1,-19.8 15.2,-19.1 15.7,-19.1 15.3,-18.6 15.4,-17.9 15.1,-18.4 14.7,-17.9 
						14.9,-18.6 14.5,-19.1 14.9,-19.1 					"/>
					<polygon id="polygon249" class="st5" points="17.6,-19.8 17.7,-19.1 18.2,-19.1 17.8,-18.6 18,-17.9 17.6,-18.4 17.2,-17.9 
						17.4,-18.6 17,-19.1 17.5,-19.1 					"/>
					<polygon id="polygon250" class="st5" points="20.1,-19.8 20.3,-19.1 20.7,-19.1 20.3,-18.6 20.5,-17.9 20.1,-18.4 19.8,-17.9 
						19.9,-18.6 19.5,-19.1 20,-19.1 					"/>
					<polygon id="polygon251" class="st5" points="22.6,-19.8 22.8,-19.1 23.2,-19.1 22.9,-18.6 23,-17.9 22.6,-18.4 22.3,-17.9 
						22.4,-18.6 22.1,-19.1 22.5,-19.1 					"/>
					<polygon id="polygon252" class="st5" points="25.2,-19.8 25.3,-19.1 25.7,-19.1 25.4,-18.6 25.5,-17.9 25.2,-18.4 24.8,-17.9 
						24.9,-18.6 24.6,-19.1 25,-19.1 					"/>
					<polygon id="polygon253" class="st5" points="27.7,-19.8 27.8,-19.1 28.3,-19.1 27.9,-18.6 28,-17.9 27.7,-18.4 27.3,-17.9 
						27.5,-18.6 27.1,-19.1 27.5,-19.1 					"/>
				</g>
				<g id="g254">
					<polygon id="polygon255" class="st5" points="16.3,-18 16.5,-17.3 16.9,-17.3 16.6,-16.8 16.7,-16.1 16.3,-16.6 16,-16.1 
						16.1,-16.8 15.8,-17.3 16.2,-17.3 					"/>
					<polygon id="polygon256" class="st5" points="18.9,-18 19,-17.3 19.4,-17.3 19.1,-16.8 19.2,-16.1 18.9,-16.6 18.5,-16.1 
						18.6,-16.8 18.3,-17.3 18.7,-17.3 					"/>
					<polygon id="polygon257" class="st5" points="21.4,-18 21.5,-17.3 22,-17.3 21.6,-16.8 21.7,-16.1 21.4,-16.6 21,-16.1 
						21.2,-16.8 20.8,-17.3 21.2,-17.3 					"/>
					<polygon id="polygon258" class="st5" points="23.9,-18 24,-17.3 24.5,-17.3 24.1,-16.8 24.3,-16.1 23.9,-16.6 23.5,-16.1 
						23.7,-16.8 23.3,-17.3 23.8,-17.3 					"/>
					<polygon id="polygon259" class="st5" points="26.4,-18 26.6,-17.3 27,-17.3 26.6,-16.8 26.8,-16.1 26.4,-16.6 26.1,-16.1 
						26.2,-16.8 25.8,-17.3 26.3,-17.3 					"/>
				</g>
			</g>
			<g id="g260" transform="translate(0,42)">
				<g id="g261">
					<polygon id="polygon262" class="st5" points="15.1,-30.2 15.2,-29.5 15.7,-29.5 15.3,-29.1 15.4,-28.3 15.1,-28.8 14.7,-28.3 
						14.9,-29.1 14.5,-29.5 14.9,-29.5 					"/>
					<polygon id="polygon263" class="st5" points="17.6,-30.2 17.7,-29.5 18.2,-29.5 17.8,-29.1 18,-28.3 17.6,-28.8 17.2,-28.3 
						17.4,-29.1 17,-29.5 17.5,-29.5 					"/>
					<polygon id="polygon264" class="st5" points="20.1,-30.2 20.3,-29.5 20.7,-29.5 20.3,-29.1 20.5,-28.3 20.1,-28.8 19.8,-28.3 
						19.9,-29.1 19.5,-29.5 20,-29.5 					"/>
					<polygon id="polygon265" class="st5" points="22.6,-30.2 22.8,-29.5 23.2,-29.5 22.9,-29.1 23,-28.3 22.6,-28.8 22.3,-28.3 
						22.4,-29.1 22.1,-29.5 22.5,-29.5 					"/>
					<polygon id="polygon266" class="st5" points="25.2,-30.2 25.3,-29.5 25.7,-29.5 25.4,-29.1 25.5,-28.3 25.2,-28.8 24.8,-28.3 
						24.9,-29.1 24.6,-29.5 25,-29.5 					"/>
					<polygon id="polygon267" class="st5" points="27.7,-30.2 27.8,-29.5 28.3,-29.5 27.9,-29.1 28,-28.3 27.7,-28.8 27.3,-28.3 
						27.5,-29.1 27.1,-29.5 27.5,-29.5 					"/>
				</g>
				<g id="g268">
					<polygon id="polygon269" class="st5" points="16.3,-28.4 16.5,-27.7 16.9,-27.7 16.6,-27.3 16.7,-26.5 16.3,-27 16,-26.5 
						16.1,-27.3 15.8,-27.7 16.2,-27.7 					"/>
					<polygon id="polygon270" class="st5" points="18.9,-28.4 19,-27.7 19.4,-27.7 19.1,-27.3 19.2,-26.5 18.9,-27 18.5,-26.5 
						18.6,-27.3 18.3,-27.7 18.7,-27.7 					"/>
					<polygon id="polygon271" class="st5" points="21.4,-28.4 21.5,-27.7 22,-27.7 21.6,-27.3 21.7,-26.5 21.4,-27 21,-26.5 
						21.2,-27.3 20.8,-27.7 21.2,-27.7 					"/>
					<polygon id="polygon272" class="st5" points="23.9,-28.4 24,-27.7 24.5,-27.7 24.1,-27.3 24.3,-26.5 23.9,-27 23.5,-26.5 
						23.7,-27.3 23.3,-27.7 23.8,-27.7 					"/>
					<polygon id="polygon273" class="st5" points="26.4,-28.4 26.6,-27.7 27,-27.7 26.6,-27.3 26.8,-26.5 26.4,-27 26.1,-26.5 
						26.2,-27.3 25.8,-27.7 26.3,-27.7 					"/>
				</g>
			</g>
			<g id="g211" transform="translate(0,56)">
				<polygon id="polygon212" class="st5" points="15.1,-40.6 15.2,-39.9 15.7,-39.9 15.3,-39.5 15.4,-38.8 15.1,-39.2 14.7,-38.8 
					14.9,-39.5 14.5,-39.9 14.9,-39.9 				"/>
				<polygon id="polygon213" class="st5" points="17.6,-40.6 17.7,-39.9 18.2,-39.9 17.8,-39.5 18,-38.8 17.6,-39.2 17.2,-38.8 
					17.4,-39.5 17,-39.9 17.5,-39.9 				"/>
				<polygon id="polygon214" class="st5" points="20.1,-40.6 20.3,-39.9 20.7,-39.9 20.3,-39.5 20.5,-38.8 20.1,-39.2 19.8,-38.8 
					19.9,-39.5 19.5,-39.9 20,-39.9 				"/>
				<polygon id="polygon215" class="st5" points="22.6,-40.6 22.8,-39.9 23.2,-39.9 22.9,-39.5 23,-38.8 22.6,-39.2 22.3,-38.8 
					22.4,-39.5 22.1,-39.9 22.5,-39.9 				"/>
				<polygon id="polygon216" class="st5" points="25.2,-40.6 25.3,-39.9 25.7,-39.9 25.4,-39.5 25.5,-38.8 25.2,-39.2 24.8,-38.8 
					24.9,-39.5 24.6,-39.9 25,-39.9 				"/>
				<polygon id="polygon217" class="st5" points="27.7,-40.6 27.8,-39.9 28.3,-39.9 27.9,-39.5 28,-38.8 27.7,-39.2 27.3,-38.8 
					27.5,-39.5 27.1,-39.9 27.5,-39.9 				"/>
			</g>
		</g>
	</g>
</g>
</svg>
