<?xml version="1.0" encoding="utf-8"?>
<!-- Generator: Adobe Illustrator 26.3.1, SVG Export Plug-In . SVG Version: 6.00 Build 0)  -->
<svg version="1.1" id="Layer_1" xmlns="http://www.w3.org/2000/svg" xmlns:xlink="http://www.w3.org/1999/xlink" x="0px" y="0px"
	 viewBox="0 0 150 125" style="enable-background:new 0 0 150 125;" xml:space="preserve">
<style type="text/css">
	.st0{fill:#BD3D44;stroke:#231F20;stroke-miterlimit:10;}
	.st1{fill:#FFFFFF;stroke:#231F20;stroke-miterlimit:10;}
	.st2{fill:#192F5D;stroke:#231F20;stroke-miterlimit:10;}
	.st3{fill:#FFFFFF;stroke:#000000;stroke-miterlimit:10;}
	.st4{clip-path:url(#SVGID_00000080902747893941379020000001051300504181161649_);}
	.st5{fill-rule:evenodd;clip-rule:evenodd;fill:#BD3D44;}
	.st6{fill-rule:evenodd;clip-rule:evenodd;fill:#FFFFFF;}
	.st7{fill-rule:evenodd;clip-rule:evenodd;fill:#192F5D;}
</style>
<g>
	<path class="st0" d="M11,1h78c5.5,0,10,4.5,10,10v103c0,5.5-4.5,10-10,10H11c-5.5,0-10-4.5-10-10V11C1,5.5,5.5,1,11,1z"/>
	<path class="st1" d="M36,1h78c5.5,0,10,4.5,10,10v103c0,5.5-4.5,10-10,10H36c-5.5,0-10-4.5-10-10V11C26,5.5,30.5,1,36,1z"/>
	<path class="st2" d="M61,1h78c5.5,0,10,4.5,10,10v103c0,5.5-4.5,10-10,10H61c-5.5,0-10-4.5-10-10V11C51,5.5,55.5,1,61,1z"/>
	<path class="st3" d="M0,0"/>
</g>
<g>
	<defs>
		<path id="SVGID_1_" d="M58,4.2h83.1c2.9,0,5.2,3.9,5.2,8.7v99.3c0,4.8-2.3,8.7-5.2,8.7H58c-2.9,0-5.2-3.9-5.2-8.7V12.9
			C52.8,8.1,55.2,4.2,58,4.2z"/>
	</defs>
	<clipPath id="SVGID_00000108267505291441829020000003923349755853825199_">
		<use xlink:href="#SVGID_1_"  style="overflow:visible;"/>
	</clipPath>
	
		<g id="flag" transform="matrix(.93750 0 0 .93750 0 -.0000049038)" style="clip-path:url(#SVGID_00000108267505291441829020000003923349755853825199_);">
		<g id="g390" transform="matrix(3.9385 0 0 3.9385 0 .000005)">
			<g id="g169">
				<rect id="rect156" x="14.3" y="1.1" class="st5" width="36.1" height="2.4"/>
				<rect id="rect158" x="14.3" y="6" class="st5" width="36.1" height="2.4"/>
				<rect id="rect160" x="14.3" y="10.9" class="st5" width="36.1" height="2.4"/>
				<rect id="rect162" x="14.3" y="15.7" class="st5" width="36.1" height="2.4"/>
				<rect id="rect164" x="14.3" y="20.6" class="st5" width="36.1" height="2.4"/>
				<rect id="rect166" x="14.3" y="25.4" class="st5" width="36.1" height="2.4"/>
				<rect id="rect168" x="14.3" y="30.3" class="st5" width="36.1" height="2.4"/>
			</g>
			<g id="g177">
				<rect id="rect157" x="14.3" y="3.6" class="st6" width="36.1" height="2.4"/>
				<rect id="rect159" x="14.3" y="8.4" class="st6" width="36.1" height="2.4"/>
				<rect id="rect161" x="14.3" y="13.3" class="st6" width="36.1" height="2.4"/>
				<rect id="rect163" x="14.3" y="18.1" class="st6" width="36.1" height="2.4"/>
				<rect id="rect165" x="14.3" y="23" class="st6" width="36.1" height="2.4"/>
				<rect id="rect167" x="14.3" y="27.9" class="st6" width="36.1" height="2.4"/>
			</g>
		</g>
		<rect id="rect200" x="56.4" y="4.5" class="st7" width="56.8" height="67"/>
		<g id="g274" transform="matrix(3.9385 0 0 3.9385 0 .000005)">
			<g id="g218">
				<g id="g194">
					<polygon id="polygon207" class="st6" points="15.5,1.9 15.6,2.5 16.1,2.5 15.7,3 15.9,3.6 15.5,3.2 15.2,3.6 15.3,3 15,2.5 
						15.4,2.5 					"/>
					<polygon id="polygon188" class="st6" points="17.9,1.9 18,2.5 18.5,2.5 18.1,3 18.3,3.6 17.9,3.2 17.6,3.6 17.7,3 17.4,2.5 
						17.8,2.5 					"/>
					<polygon id="polygon189" class="st6" points="20.3,1.9 20.5,2.5 20.9,2.5 20.5,3 20.7,3.6 20.3,3.2 20,3.6 20.1,3 19.8,2.5 
						20.2,2.5 					"/>
					<polygon id="polygon190" class="st6" points="22.7,1.9 22.9,2.5 23.3,2.5 22.9,3 23.1,3.6 22.7,3.2 22.4,3.6 22.5,3 22.2,2.5 
						22.6,2.5 					"/>
					<polygon id="polygon191" class="st6" points="25.1,1.9 25.3,2.5 25.7,2.5 25.3,3 25.5,3.6 25.1,3.2 24.8,3.6 24.9,3 24.6,2.5 
						25,2.5 					"/>
					<polygon id="polygon192" class="st6" points="27.5,1.9 27.7,2.5 28.1,2.5 27.7,3 27.9,3.6 27.5,3.2 27.2,3.6 27.3,3 27,2.5 
						27.4,2.5 					"/>
				</g>
				<g id="g205">
					<polygon id="polygon193" class="st6" points="16.7,3.6 16.8,4.2 17.3,4.2 16.9,4.7 17.1,5.3 16.7,4.9 16.4,5.3 16.5,4.7 
						16.2,4.2 16.6,4.2 					"/>
					<polygon id="polygon201" class="st6" points="19.1,3.6 19.3,4.2 19.7,4.2 19.3,4.7 19.5,5.3 19.1,4.9 18.8,5.3 18.9,4.7 
						18.6,4.2 19,4.2 					"/>
					<polygon id="polygon202" class="st6" points="21.5,3.6 21.7,4.2 22.1,4.2 21.7,4.7 21.9,5.3 21.5,4.9 21.2,5.3 21.3,4.7 
						21,4.2 21.4,4.2 					"/>
					<polygon id="polygon203" class="st6" points="23.9,3.6 24.1,4.2 24.5,4.2 24.1,4.7 24.3,5.3 23.9,4.9 23.6,5.3 23.7,4.7 
						23.4,4.2 23.8,4.2 					"/>
					<polygon id="polygon204" class="st6" points="26.3,3.6 26.5,4.2 26.9,4.2 26.5,4.7 26.7,5.3 26.3,4.9 26,5.3 26.1,4.7 
						25.8,4.2 26.2,4.2 					"/>
				</g>
			</g>
			<g id="g232" transform="translate(0,14)">
				<g id="g233">
					<polygon id="polygon234" class="st6" points="15.5,-8.7 15.6,-8.1 16.1,-8.1 15.7,-7.6 15.9,-7 15.5,-7.4 15.2,-7 15.3,-7.6 
						15,-8.1 15.4,-8.1 					"/>
					<polygon id="polygon235" class="st6" points="17.9,-8.7 18,-8.1 18.5,-8.1 18.1,-7.6 18.3,-7 17.9,-7.4 17.6,-7 17.7,-7.6 
						17.4,-8.1 17.8,-8.1 					"/>
					<polygon id="polygon236" class="st6" points="20.3,-8.7 20.5,-8.1 20.9,-8.1 20.5,-7.6 20.7,-7 20.3,-7.4 20,-7 20.1,-7.6 
						19.8,-8.1 20.2,-8.1 					"/>
					<polygon id="polygon237" class="st6" points="22.7,-8.7 22.9,-8.1 23.3,-8.1 22.9,-7.6 23.1,-7 22.7,-7.4 22.4,-7 22.5,-7.6 
						22.2,-8.1 22.6,-8.1 					"/>
					<polygon id="polygon238" class="st6" points="25.1,-8.7 25.3,-8.1 25.7,-8.1 25.3,-7.6 25.5,-7 25.1,-7.4 24.8,-7 24.9,-7.6 
						24.6,-8.1 25,-8.1 					"/>
					<polygon id="polygon239" class="st6" points="27.5,-8.7 27.7,-8.1 28.1,-8.1 27.7,-7.6 27.9,-7 27.5,-7.4 27.2,-7 27.3,-7.6 
						27,-8.1 27.4,-8.1 					"/>
				</g>
				<g id="g240">
					<polygon id="polygon241" class="st6" points="16.7,-7 16.8,-6.4 17.3,-6.4 16.9,-5.9 17.1,-5.3 16.7,-5.7 16.4,-5.3 16.5,-5.9 
						16.2,-6.4 16.6,-6.4 					"/>
					<polygon id="polygon242" class="st6" points="19.1,-7 19.3,-6.4 19.7,-6.4 19.3,-5.9 19.5,-5.3 19.1,-5.7 18.8,-5.3 18.9,-5.9 
						18.6,-6.4 19,-6.4 					"/>
					<polygon id="polygon243" class="st6" points="21.5,-7 21.7,-6.4 22.1,-6.4 21.7,-5.9 21.9,-5.3 21.5,-5.7 21.2,-5.3 21.3,-5.9 
						21,-6.4 21.4,-6.4 					"/>
					<polygon id="polygon244" class="st6" points="23.9,-7 24.1,-6.4 24.5,-6.4 24.1,-5.9 24.3,-5.3 23.9,-5.7 23.6,-5.3 23.7,-5.9 
						23.4,-6.4 23.8,-6.4 					"/>
					<polygon id="polygon245" class="st6" points="26.3,-7 26.5,-6.4 26.9,-6.4 26.5,-5.9 26.7,-5.3 26.3,-5.7 26,-5.3 26.1,-5.9 
						25.8,-6.4 26.2,-6.4 					"/>
				</g>
			</g>
			<g id="g246" transform="translate(0,28)">
				<g id="g247">
					<polygon id="polygon248" class="st6" points="15.5,-19.3 15.6,-18.7 16.1,-18.7 15.7,-18.2 15.9,-17.6 15.5,-18 15.2,-17.6 
						15.3,-18.2 15,-18.7 15.4,-18.7 					"/>
					<polygon id="polygon249" class="st6" points="17.9,-19.3 18,-18.7 18.5,-18.7 18.1,-18.2 18.3,-17.6 17.9,-18 17.6,-17.6 
						17.7,-18.2 17.4,-18.7 17.8,-18.7 					"/>
					<polygon id="polygon250" class="st6" points="20.3,-19.3 20.5,-18.7 20.9,-18.7 20.5,-18.2 20.7,-17.6 20.3,-18 20,-17.6 
						20.1,-18.2 19.8,-18.7 20.2,-18.7 					"/>
					<polygon id="polygon251" class="st6" points="22.7,-19.3 22.9,-18.7 23.3,-18.7 22.9,-18.2 23.1,-17.6 22.7,-18 22.4,-17.6 
						22.5,-18.2 22.2,-18.7 22.6,-18.7 					"/>
					<polygon id="polygon252" class="st6" points="25.1,-19.3 25.3,-18.7 25.7,-18.7 25.3,-18.2 25.5,-17.6 25.1,-18 24.8,-17.6 
						24.9,-18.2 24.6,-18.7 25,-18.7 					"/>
					<polygon id="polygon253" class="st6" points="27.5,-19.3 27.7,-18.7 28.1,-18.7 27.7,-18.2 27.9,-17.6 27.5,-18 27.2,-17.6 
						27.3,-18.2 27,-18.7 27.4,-18.7 					"/>
				</g>
				<g id="g254">
					<polygon id="polygon255" class="st6" points="16.7,-17.6 16.8,-17 17.3,-17 16.9,-16.5 17.1,-15.9 16.7,-16.3 16.4,-15.9 
						16.5,-16.5 16.2,-17 16.6,-17 					"/>
					<polygon id="polygon256" class="st6" points="19.1,-17.6 19.3,-17 19.7,-17 19.3,-16.5 19.5,-15.9 19.1,-16.3 18.8,-15.9 
						18.9,-16.5 18.6,-17 19,-17 					"/>
					<polygon id="polygon257" class="st6" points="21.5,-17.6 21.7,-17 22.1,-17 21.7,-16.5 21.9,-15.9 21.5,-16.3 21.2,-15.9 
						21.3,-16.5 21,-17 21.4,-17 					"/>
					<polygon id="polygon258" class="st6" points="23.9,-17.6 24.1,-17 24.5,-17 24.1,-16.5 24.3,-15.9 23.9,-16.3 23.6,-15.9 
						23.7,-16.5 23.4,-17 23.8,-17 					"/>
					<polygon id="polygon259" class="st6" points="26.3,-17.6 26.5,-17 26.9,-17 26.5,-16.5 26.7,-15.9 26.3,-16.3 26,-15.9 
						26.1,-16.5 25.8,-17 26.2,-17 					"/>
				</g>
			</g>
			<g id="g260" transform="translate(0,42)">
				<g id="g261">
					<polygon id="polygon262" class="st6" points="15.5,-29.9 15.6,-29.3 16.1,-29.3 15.7,-28.8 15.9,-28.2 15.5,-28.6 15.2,-28.2 
						15.3,-28.8 15,-29.3 15.4,-29.3 					"/>
					<polygon id="polygon263" class="st6" points="17.9,-29.9 18,-29.3 18.5,-29.3 18.1,-28.8 18.3,-28.2 17.9,-28.6 17.6,-28.2 
						17.7,-28.8 17.4,-29.3 17.8,-29.3 					"/>
					<polygon id="polygon264" class="st6" points="20.3,-29.9 20.5,-29.3 20.9,-29.3 20.5,-28.8 20.7,-28.2 20.3,-28.6 20,-28.2 
						20.1,-28.8 19.8,-29.3 20.2,-29.3 					"/>
					<polygon id="polygon265" class="st6" points="22.7,-29.9 22.9,-29.3 23.3,-29.3 22.9,-28.8 23.1,-28.2 22.7,-28.6 22.4,-28.2 
						22.5,-28.8 22.2,-29.3 22.6,-29.3 					"/>
					<polygon id="polygon266" class="st6" points="25.1,-29.9 25.3,-29.3 25.7,-29.3 25.3,-28.8 25.5,-28.2 25.1,-28.6 24.8,-28.2 
						24.9,-28.8 24.6,-29.3 25,-29.3 					"/>
					<polygon id="polygon267" class="st6" points="27.5,-29.9 27.7,-29.3 28.1,-29.3 27.7,-28.8 27.9,-28.2 27.5,-28.6 27.2,-28.2 
						27.3,-28.8 27,-29.3 27.4,-29.3 					"/>
				</g>
				<g id="g268">
					<polygon id="polygon269" class="st6" points="16.7,-28.2 16.8,-27.6 17.3,-27.6 16.9,-27.1 17.1,-26.5 16.7,-26.9 16.4,-26.5 
						16.5,-27.1 16.2,-27.6 16.6,-27.6 					"/>
					<polygon id="polygon270" class="st6" points="19.1,-28.2 19.3,-27.6 19.7,-27.6 19.3,-27.1 19.5,-26.5 19.1,-26.9 18.8,-26.5 
						18.9,-27.1 18.6,-27.6 19,-27.6 					"/>
					<polygon id="polygon271" class="st6" points="21.5,-28.2 21.7,-27.6 22.1,-27.6 21.7,-27.1 21.9,-26.5 21.5,-26.9 21.2,-26.5 
						21.3,-27.1 21,-27.6 21.4,-27.6 					"/>
					<polygon id="polygon272" class="st6" points="23.9,-28.2 24.1,-27.6 24.5,-27.6 24.1,-27.1 24.3,-26.5 23.9,-26.9 23.6,-26.5 
						23.7,-27.1 23.4,-27.6 23.8,-27.6 					"/>
					<polygon id="polygon273" class="st6" points="26.3,-28.2 26.5,-27.6 26.9,-27.6 26.5,-27.1 26.7,-26.5 26.3,-26.9 26,-26.5 
						26.1,-27.1 25.8,-27.6 26.2,-27.6 					"/>
				</g>
			</g>
			<g id="g211" transform="translate(0,56)">
				<polygon id="polygon212" class="st6" points="15.5,-40.5 15.6,-39.9 16.1,-39.9 15.7,-39.4 15.9,-38.8 15.5,-39.2 15.2,-38.8 
					15.3,-39.4 15,-39.9 15.4,-39.9 				"/>
				<polygon id="polygon213" class="st6" points="17.9,-40.5 18,-39.9 18.5,-39.9 18.1,-39.4 18.3,-38.8 17.9,-39.2 17.6,-38.8 
					17.7,-39.4 17.4,-39.9 17.8,-39.9 				"/>
				<polygon id="polygon214" class="st6" points="20.3,-40.5 20.5,-39.9 20.9,-39.9 20.5,-39.4 20.7,-38.8 20.3,-39.2 20,-38.8 
					20.1,-39.4 19.8,-39.9 20.2,-39.9 				"/>
				<polygon id="polygon215" class="st6" points="22.7,-40.5 22.9,-39.9 23.3,-39.9 22.9,-39.4 23.1,-38.8 22.7,-39.2 22.4,-38.8 
					22.5,-39.4 22.2,-39.9 22.6,-39.9 				"/>
				<polygon id="polygon216" class="st6" points="25.1,-40.5 25.3,-39.9 25.7,-39.9 25.3,-39.4 25.5,-38.8 25.1,-39.2 24.8,-38.8 
					24.9,-39.4 24.6,-39.9 25,-39.9 				"/>
				<polygon id="polygon217" class="st6" points="27.5,-40.5 27.7,-39.9 28.1,-39.9 27.7,-39.4 27.9,-38.8 27.5,-39.2 27.2,-38.8 
					27.3,-39.4 27,-39.9 27.4,-39.9 				"/>
			</g>
		</g>
	</g>
</g>
</svg>
