<?xml version="1.0" encoding="utf-8"?>
<!-- Generator: Adobe Illustrator 26.3.1, SVG Export Plug-In . SVG Version: 6.00 Build 0)  -->
<svg version="1.1" id="Layer_1" xmlns="http://www.w3.org/2000/svg" xmlns:xlink="http://www.w3.org/1999/xlink" x="0px" y="0px"
	 viewBox="0 0 150 125" style="enable-background:new 0 0 150 125;" xml:space="preserve">
<style type="text/css">
	.st0{stroke:#FFFFFF;stroke-miterlimit:10;}
	.st1{fill:#BE3D45;stroke:#231F20;stroke-miterlimit:10;}
	.st2{fill:#E7E8E9;stroke:#231F20;stroke-miterlimit:10;}
	.st3{fill:#FFFFFF;stroke:#000000;stroke-miterlimit:10;}
	.st4{fill:#FFFFFF;}
</style>
<g>
	<path class="st0" d="M11,1h78c5.5,0,10,4.5,10,10v103c0,5.5-4.5,10-10,10H11c-5.5,0-10-4.5-10-10V11C1,5.5,5.5,1,11,1z"/>
	<path class="st1" d="M36,1h78c5.5,0,10,4.5,10,10v103c0,5.5-4.5,10-10,10H36c-5.5,0-10-4.5-10-10V11C26,5.5,30.5,1,36,1z"/>
	<path class="st2" d="M61,1h78c5.5,0,10,4.5,10,10v103c0,5.5-4.5,10-10,10H61c-5.5,0-10-4.5-10-10V11C51,5.5,55.5,1,61,1z"/>
	<path class="st3" d="M0,0"/>
	
		<image style="overflow:visible;" width="225" height="225" xlink:href="../../../../Desktop/download.png"  transform="matrix(0.2633 0 0 0.2633 70.383 32.883)">
	</image>
</g>
<path class="st4" d="M180.6,90.3"/>
</svg>
